<svg width="144" height="214" viewBox="0 0 144 214" fill="none" xmlns="http://www.w3.org/2000/svg">
<g clip-path="url(#clip0_1_146)">
<mask id="mask0_1_146" style="mask-type:luminance" maskUnits="userSpaceOnUse" x="0" y="0" width="144" height="213">
<path d="M0 0.0078125H143.245V212.443H0V0.0078125Z" fill="white"/>
</mask>
<g mask="url(#mask0_1_146)">
<path d="M103.785 114.209C103.824 113.275 103.924 112.401 103.894 111.528C103.824 109.452 104.46 107.596 105.374 105.768C106.496 103.534 107.479 101.231 108.491 99.0262C108.005 97.4673 106.357 97.1098 105.989 95.9083C105.095 95.4416 104.321 95.4019 103.596 95.5409C101.402 95.9679 99.2271 96.4743 97.2213 96.9112C95.841 98.49 95.4935 100.248 95.0467 101.926C93.2494 108.708 91.5216 115.509 89.7839 122.301C88.93 125.628 88.4137 128.954 89.7442 132.291C90.2904 137.156 91.7599 141.843 92.3061 146.718C92.7529 150.69 93.7757 154.593 94.5402 158.525C94.5899 158.773 94.719 159.011 94.7289 159.25C94.9275 163.778 96.0694 168.166 96.5758 172.655C96.9134 175.643 97.3603 178.622 98.6114 181.482C98.7008 186.169 98.7802 190.935 98.8696 195.652C97.4529 195.883 96.1919 195.579 95.0864 194.738C94.6991 194.033 94.8878 193.269 94.8977 192.534C94.9176 188.512 94.7587 184.54 93.587 180.638C93.1203 179.099 93.0905 177.431 92.8621 175.812C92.038 170.113 91.3727 164.393 90.3301 158.733C89.4761 154.056 89.0392 149.3 87.659 144.723C87.371 143.779 87.3909 142.737 87.2519 141.744C87.1824 141.257 87.1625 140.731 86.5568 140.532C86.3383 140.492 86.1795 140.641 86.1596 140.969C85.8121 146.977 85.0971 152.934 83.9254 158.852C83.3694 161.672 83.2204 164.572 82.8431 167.422C82.6842 168.663 82.5154 169.914 82.1878 171.116C81.7508 172.704 81.4331 174.283 81.4331 175.931C81.4331 176.855 81.1451 177.659 80.3309 178.215C79.1791 178.354 78.484 177.679 77.8485 176.726C77.3322 175.226 77.4513 173.578 77.6797 171.969C78.2755 167.878 79.0996 163.827 79.6358 159.726C80.46 153.391 81.7409 147.126 82.148 140.721C82.3864 136.997 83.3595 133.313 84.0049 129.62C84.1141 129.004 84.2134 128.388 84.2829 127.912C81.6615 117.962 79.3777 108.082 76.3491 98.2815C74.3433 96.7424 71.8708 96.2658 69.4579 95.6998C68.7529 95.531 67.9387 95.6601 67.4422 96.4545C67.1344 97.0602 67.4422 97.6262 67.6706 98.212C68.604 100.545 69.5076 102.879 70.4608 105.202C71.9701 108.867 72.4368 112.699 72.407 116.622C72.407 116.979 72.2184 117.327 72.1489 117.585C71.6226 118.22 70.997 118.24 70.3615 118.2C69.5274 118.141 68.9813 117.674 68.4749 116.661C68.4749 116.324 68.4253 115.708 68.4749 115.092C68.8026 111.349 67.7997 107.874 66.2804 104.527C65.3967 102.581 64.513 100.655 63.8576 98.6092C63.5597 97.6857 62.9739 96.8517 62.5568 96.0573C62.4476 95.2927 62.6958 94.7466 63.3611 94.1607L66.4691 92.8103C69.448 91.9663 71.5928 93.3465 73.7674 93.843C74.5519 93.3564 74.0951 92.8699 73.9461 92.4727C72.7943 89.2654 72.3375 85.8992 71.8113 82.5629C70.9672 77.1909 69.1402 72.1367 67.1344 67.1322C66.7174 66.0896 66.34 65.0172 66.0322 63.9348C64.8804 59.953 63.3115 56.2096 60.9979 52.6945C59.429 50.3114 58.5155 47.5112 57.3338 44.8699C56.5692 43.1521 55.8642 41.4045 55.0202 39.3887C55.1493 36.4198 53.4513 33.3912 53.9478 30.174C53.501 29.8165 53.2229 29.5882 52.9747 29.3896C52.0115 29.4194 51.6342 30.0449 51.237 30.9187C51.2867 32.7855 52.3194 34.5629 52.9648 36.3205C52.6272 36.807 52.4087 37.1049 52.2399 37.3432C51.3065 37.651 50.4426 37.6411 49.5887 37.3234C47.7021 36.6482 45.7956 36.0127 43.9288 35.2878C40.4733 33.9572 36.9085 33.4806 33.2246 33.7189C30.5933 33.8877 27.952 34.0267 25.2511 33.3515C25.0128 34.1657 24.7745 34.9899 24.566 35.685C20.6636 39.0511 16.3839 39.4781 11.7369 37.9887C10.9524 37.3829 10.2077 36.7276 10.6148 35.5261C11.9851 34.5729 13.266 35.5658 14.815 35.6949C16.3939 35.2381 18.35 35.3076 19.9487 33.9572C20.743 32.7657 20.7232 31.0975 22.4609 29.4392C23.6822 28.3668 26.403 28.5456 28.1406 26.8873C28.6471 25.9837 28.518 25.1198 28.3492 24.2758C27.3661 22.8062 26.403 21.3466 25.6284 20.1848C25.1617 18.1293 25.6384 16.6101 26.4427 15.1306C27.2172 13.7007 27.9718 12.2609 28.2598 10.5729C27.3363 8.95434 25.7277 8.20962 24.2284 7.30602C22.8481 6.47193 21.5573 5.50875 20.4749 4.49593C20.4749 3.33416 20.892 2.60929 21.6169 2.0433C23.0269 1.55675 23.8907 2.91711 25.122 3.07599C25.6682 2.45042 25.7575 1.36809 26.9491 1.32837C30.6826 1.6064 33.7112 3.5824 36.6206 5.80664C37.5142 6.49179 38.3781 7.22658 39.2122 7.98124C40.8109 9.43097 42.5982 10.5729 44.5941 11.3673C47.2056 12.39 48.9234 14.227 50.0355 16.7888C50.9292 18.8641 52.0115 20.8501 52.7265 22.2998C53.5903 23.7495 54.7621 23.1637 55.6656 24.1368C55.6458 24.1169 55.9933 24.385 56.0728 24.7127C56.7579 27.5029 57.4033 30.3031 58.0587 33.1033C58.2871 34.0764 58.4658 35.0693 58.7538 36.0226C59.6176 38.9022 60.3326 41.8513 61.4546 44.6316C62.7256 47.7694 64.1754 50.8575 65.913 53.7569C67.6805 56.6961 68.8125 59.8538 69.9644 63.0312C71.1559 66.3279 72.1787 69.6841 73.5192 72.9212C75.7037 78.1839 77.1931 83.5658 77.0938 89.4044C77.8088 91.0229 77.9577 92.989 79.3975 94.5976C83.7666 94.5083 88.2746 95.4913 92.6139 93.7635C95.3048 85.651 97.5589 77.6676 100.617 69.9919C103.626 62.4454 106.406 54.7698 109.921 47.6899C110.954 46.9849 111.788 46.9551 112.652 47.2828C113.397 47.6899 113.635 48.3949 113.873 49.3085C107.856 63.3391 101.948 77.5484 97.9163 92.3138C98.8398 93.3167 99.6838 92.8997 100.528 92.7209C104.073 91.9663 105.999 92.1251 109.345 93.4358C110.537 95.4714 111.738 97.507 112.97 99.6022C111.351 102.134 110.179 104.766 108.978 107.387C108.342 108.777 107.915 110.177 107.757 111.696C107.538 113.682 107.23 115.668 106.823 117.624C106.098 121.11 106.108 124.585 106.774 128.07C107.886 133.899 110.04 139.351 112.821 144.574C113.827 146.451 114.579 148.455 115.055 150.531C115.641 153.083 116.544 155.566 117.259 158.098C118.461 162.328 119.345 166.617 119.325 171.056C119.325 171.92 119.533 172.794 119.623 173.667C119.692 174.412 119.821 175.177 119.752 175.912C119.543 178.027 119.354 180.161 118.937 182.247C117.964 187.132 115.73 191.481 112.602 195.304C110.884 197.409 108.869 199.326 106.376 200.239C105.433 200.021 105.076 199.564 104.996 198.869C105.066 198.631 105.066 198.353 105.205 198.164C107.578 194.778 110.219 191.581 112.245 187.936C114.052 184.679 115.075 181.254 115.234 177.56C115.502 171.394 115.204 165.257 113.724 159.25C112.801 155.476 111.649 151.763 110.497 148.049C110.09 146.738 109.465 145.487 108.799 144.276C106.784 140.632 105.284 136.799 104.39 132.718C104.202 131.864 103.805 131.059 103.556 130.215C102.822 127.673 102.295 125.111 102.414 122.44C102.504 120.315 102.434 118.181 102.434 116.175C102.951 115.41 103.358 114.804 103.755 114.219L103.785 114.209ZM86.4674 117.724C88.1456 111.15 89.8137 104.636 91.5117 97.9936C89.6151 97.5765 87.798 98.1822 86.1199 98.3411C84.2928 98.0233 82.6147 97.3382 80.6983 98.3113C82.4062 103.326 83.5283 108.42 84.7 113.504C84.9184 114.477 85.2461 115.42 85.5539 116.373C85.6731 116.721 85.8617 117.058 86.0405 117.376C86.1 117.476 86.2291 117.535 86.4774 117.724H86.4674Z" fill="#4B89C4"/>
<path d="M78.8216 205.333C79.7252 205.145 80.5295 204.718 81.1849 204.876C83.3297 205.393 85.405 204.817 87.5101 204.718C89.635 204.618 91.75 204.4 93.875 204.181C96.5957 203.903 99.376 203.655 102.127 204.221C103.417 204.876 104.42 205.721 104.559 207.14C104.311 207.826 103.944 208.153 103.388 208.133C102.643 208.114 101.888 208.004 101.163 207.945C100.27 208.739 101.451 209.623 100.846 210.596C100.766 210.695 100.528 210.983 100.339 211.212C99.3263 211.788 98.3036 211.738 97.3305 211.509C93.3586 210.566 89.3371 211.152 85.3355 211.013C83.9056 210.963 82.6445 211.529 81.4232 212.453C78.8812 211.47 76.2995 211.38 73.5887 212.244L70.3913 211.46C69.8154 210.814 69.2296 210.169 68.7629 209.653C68.3855 208.312 68.9515 207.478 69.8055 206.882C70.7091 206.247 71.712 205.77 72.6553 205.234C71.8411 204.529 71.0368 203.923 70.3417 203.218C69.3686 202.225 68.3061 201.371 67.0748 200.716C65.2676 199.753 63.9569 198.313 62.7951 196.595C58.5254 190.32 56.3905 183.379 55.5763 175.902C55.1692 172.148 54.8713 168.415 54.9408 164.651C55.1295 153.957 57.5225 143.809 62.3185 134.227C62.9937 132.886 63.5399 131.476 64.1654 130.106C64.6818 128.974 65.208 127.842 65.6251 126.958C66.4492 126.392 67.045 126.303 67.6408 126.641C68.3558 127.038 68.6735 127.713 68.743 128.498C68.8125 129.262 68.6536 129.977 68.3458 130.692C67.4522 132.767 66.6479 134.872 65.7145 136.928C63.2618 142.3 61.266 147.781 60.273 153.649C59.6673 157.234 59.2006 160.819 58.9524 164.433C58.6545 168.842 59.568 173.171 59.9155 177.54C60.1638 180.688 60.9383 183.697 61.9511 186.675C62.5568 188.463 63.3214 190.171 64.1356 191.869C65.4166 194.56 67.3231 196.565 69.7757 198.263C72.8439 200.398 75.6838 202.861 78.8216 205.343V205.333ZM78.2655 206.396C77.4811 207.021 76.4385 206.982 76.4484 208.034C77.491 208.491 78.2457 208.382 78.901 207.528C78.7521 207.25 78.5833 206.962 78.2755 206.396H78.2655ZM4.66694 10.7318C4.93504 11.7149 5.88829 11.8936 6.60322 12.4993C9.7112 12.0227 12.8093 12.3504 15.9172 12.41C17.4663 12.4397 18.8862 12.8171 20.1671 13.671C20.7033 14.0285 21.1005 14.5051 21.2097 15.1605C21.0906 16.1634 19.909 16.3222 19.6309 17.1762C19.3231 18.1195 17.8932 17.5734 17.6847 18.7054C19.055 19.8572 21.2793 19.887 21.9942 21.8034C21.9247 22.7964 21.0906 23.0347 20.6835 23.3425C20.4452 24.1567 21.0211 24.7823 20.3955 25.6164C17.9528 26.8179 15.2619 25.9838 12.5412 25.676C10.7836 26.093 9.11542 27.1952 7.22879 26.5101C5.928 27.8406 6.01737 29.489 5.76913 31.0678C7.05999 31.6338 8.17211 30.2138 9.79064 30.9983C9.99916 31.1174 10.3864 31.5643 10.3368 32.4976C8.07281 34.3545 5.36201 34.8609 2.48241 34.4935C1.64832 34.2155 1.11212 33.7289 0.784443 32.7558C1.38022 30.5415 2.01572 28.1385 2.69094 25.6263C2.30368 24.6731 1.8767 23.6404 1.41994 22.5283C1.64832 22.0715 1.76748 21.5254 2.10509 21.2176C3.57468 19.8671 5.10384 18.5763 6.48407 16.8088C5.41166 15.7364 3.87257 15.4087 2.82002 14.4157C1.72776 13.393 0.645428 12.3504 0 10.9006C0.774513 7.24653 3.6839 5.34004 6.16632 3.11579C8.72817 0.822044 11.8858 0.176617 15.3115 0.0078125C16.3244 0.335491 17.2379 0.901481 17.3372 2.33135C16.2251 4.21799 14.1895 3.29453 12.4518 3.87045C7.91394 6.12448 6.20603 7.62386 4.66694 10.7318ZM11.0318 18.8642C11.0616 18.9337 11.0716 19.043 11.1113 19.0628C11.2106 19.1025 11.3496 19.1323 11.439 19.1025C11.7567 18.9933 11.7269 18.8543 11.3496 18.7947C11.2503 18.7749 11.1311 18.8444 11.0219 18.8642H11.0318ZM107.141 24.0773C107.171 22.9354 107.508 22.2999 108.273 21.7835C109.137 21.3268 110.09 21.4062 111.113 21.8531C112.324 22.9255 112.712 24.256 112.165 25.8051C109.772 27.5924 108.879 27.2846 107.141 24.0872V24.0773ZM88.503 23.8787C89.5556 24.4248 90.052 25.2391 90.2904 26.2022C90.3599 27.0661 90.0322 27.7016 89.218 28.3371C87.4008 28.8932 86.0901 28.1683 85.2262 26.1725C85.8816 24.7029 86.805 23.7099 88.503 23.8787ZM122.552 10.99C121.976 10.4141 121.638 10.0566 121.638 9.19274C121.738 8.20971 122.592 7.63379 123.823 7.3359C124.121 7.41534 124.498 7.45505 124.816 7.61393C125.928 8.15013 126.236 9.2126 126.563 10.3247C125.471 12.0723 124.002 11.2085 122.552 10.99ZM125.511 52.3669C124.011 52.8038 122.83 52.6648 121.807 51.9201C121.201 51.2349 121.102 50.5498 121.44 49.7951C122.035 48.9014 122.889 48.4447 123.942 48.3454C125.56 48.7624 126.017 49.8448 125.521 52.3669H125.511ZM130.903 25.3781C128.798 25.7753 127.258 25.3979 126.305 23.6801C126.216 22.7666 126.623 22.2006 127.308 21.7637C128.639 21.3268 129.671 21.9226 130.595 22.8063C131.022 23.2134 131.071 23.7695 130.893 25.3781H130.903ZM133.375 40.0442C132.511 41.335 131.429 41.3251 130.287 41.1265C129.493 40.6797 128.907 40.0938 128.877 39.0512C129.364 37.4823 130.505 37.1149 131.876 37.3532C132.978 37.9788 133.474 38.7633 133.375 40.0442ZM108.472 35.4666C108.743 34.0566 109.587 33.2556 111.004 33.0636C112.304 33.6197 112.563 34.8708 112.999 35.7347C112.92 36.7376 112.404 37.0454 111.768 37.3235C110.557 37.1348 109.435 36.7178 108.462 35.4765L108.472 35.4666ZM141.17 26.1923C142.6 26.798 143.484 27.7612 143.186 29.5088C141.865 30.6904 140.654 30.2734 139.462 29.5386C139.065 29.0223 138.707 28.5258 138.817 27.8506C139.439 27.1224 140.223 26.573 141.17 26.2022V26.1923ZM119.037 18.7451C116.554 19.748 116.167 19.6487 114.628 17.6826C114.578 16.5308 115.124 15.796 116.286 15.6768C116.743 15.6272 117.289 15.7562 117.686 15.9946C118.6 16.5208 119.037 17.3847 119.027 18.7451H119.037ZM100.955 43.1124C100.051 41.2655 101.054 40.5605 102.186 39.9548C103.487 39.8754 104.023 40.6598 104.44 41.6528C104.798 42.5067 105.066 43.311 104.212 44.0458C102.961 44.4927 102.077 43.6288 100.955 43.1224V43.1124ZM94.1232 32.1302C95.0268 32.7856 95.4637 33.5105 95.7219 34.3148C95.8013 34.9006 95.6027 35.3276 95.146 35.7844C93.299 36.3603 92.2366 35.3375 91.3429 33.7686C91.8394 32.5374 92.6735 32.0012 94.1331 32.1302H94.1232ZM119.97 38.3462C121.271 38.8923 121.618 40.0343 121.926 41.3053C120.854 42.5762 119.662 41.9507 118.689 41.8315C117.905 41.2258 117.468 40.6698 117.577 39.7662C118.024 38.803 118.888 38.4455 119.96 38.3561L119.97 38.3462ZM94.2225 17.2258C95.6226 17.484 96.4765 18.0897 96.6354 19.4004C96.7347 20.2147 96.4765 20.87 95.563 21.2473C94.3317 21.1183 93.299 20.592 92.743 19.4004C92.5345 18.2486 93.1799 17.7124 94.2225 17.2258ZM123.575 31.1174C122.949 31.3259 122.611 31.5245 122.264 31.5345C121.658 31.5345 121.043 31.4153 120.616 31.3657C119.821 30.7401 119.523 30.0947 119.523 29.3102C119.801 28.2974 120.606 28.0094 121.628 27.8208C123.019 28.2974 123.724 29.2705 123.575 31.1174ZM102.037 50.8774C100.508 51.0562 99.7136 50.5001 99.0086 49.8646C98.5816 49.1199 98.4823 48.4149 98.8299 47.6503C99.5249 46.9354 100.369 47.0545 101.372 47.3425C102.534 48.256 102.742 49.4277 102.037 50.8774ZM101.739 28.6052C101.561 29.1216 101.292 29.5088 100.498 29.7968C99.376 29.5982 98.1447 29.1712 97.3801 28.0194C97.2808 27.2051 97.6085 26.7186 98.1447 26.2916C98.8299 25.9242 99.5547 25.9739 100.26 26.1228C101.223 26.7285 101.57 27.6222 101.739 28.6052ZM86.3284 41.2258C87.5398 42.1493 87.7782 43.1522 87.4008 44.3239C85.4943 45.158 85.2858 45.0686 83.707 42.606C84.0744 41.4244 84.8688 40.8981 86.3284 41.2258ZM101.729 12.3603C101.948 12.0525 102.097 11.695 102.365 11.5064C102.752 11.2283 103.229 11.0893 103.527 10.9503C104.48 11.1092 105.105 11.4468 105.483 12.1319C105.711 12.7674 105.652 13.3632 105.344 13.9193C104.976 14.2668 104.589 14.5647 103.904 14.525C102.881 14.2569 102.127 13.5419 101.729 12.3603Z" fill="#4B89C4"/>
</g>
</g>
<defs>
<clipPath id="clip0_1_146">
<rect width="143.98" height="212.51" fill="white"/>
</clipPath>
</defs>
</svg>
