<svg width="298" height="139" viewBox="0 0 298 139" fill="none" xmlns="http://www.w3.org/2000/svg">
<g clip-path="url(#clip0_1_127)">
<mask id="mask0_1_127" style="mask-type:luminance" maskUnits="userSpaceOnUse" x="0" y="0" width="298" height="139">
<path d="M0 0H297.41V138.41H0V0Z" fill="white"/>
</mask>
<g mask="url(#mask0_1_127)">
<path d="M27.57 89.43C28.1 90.45 28.67 91.57 29.19 92.58C32.97 95.48 37.05 96.83 41.68 96.55C44.83 96.36 47.97 96.33 51.12 95.86C55.98 95.14 60.91 95.07 65.82 94.95C69.22 94.87 72.57 94.28 75.88 93.47C81.39 92.13 86.89 90.77 92.4 89.48C95.72 88.71 99.09 88.33 102.51 88.13C108.17 87.81 113.84 87.34 119.43 86.38C122.46 85.86 125.48 86.19 128.5 85.9C130.5 85.71 132.52 85.85 134.52 85.37C136.25 84.95 138.04 85.29 139.79 85.68C141.52 85.3 143.24 84.88 144.97 84.54C146.35 84.27 147.75 84.27 149.11 84.62C150.11 84.88 150.96 85.41 151.54 86.32C151.84 86.79 151.83 87.26 151.64 87.75C151.3 88.17 150.86 88.42 150.34 88.43C148.82 88.46 147.33 88.64 145.85 89.03C143.15 89.74 140.4 89.97 137.59 89.81C136.21 89.73 134.77 89.75 133.43 90.04C130.55 90.66 127.64 90.68 124.75 90.65C121.82 90.62 118.95 90.93 116.13 91.59C114.63 91.94 113.14 92.17 111.63 92.14C107.56 92.07 103.62 93.11 99.61 93.37C93.62 93.76 87.99 95.59 82.24 96.96C77.95 97.98 73.64 98.88 69.31 99.71C69.06 99.76 68.81 99.75 68.55 99.76L54.93 100.48C53.42 100.56 51.92 100.74 50.42 100.94C45.77 101.55 41.07 101.58 36.41 101.13C32.92 100.79 29.97 98.91 27.21 96.89C25.65 95.75 24.94 93.88 24.06 92.21C23.66 91.44 23.4 90.59 22.99 89.57C20.62 89.01 18.09 89.29 15.6 89.24C13.2 89.19 10.79 89.32 8.39 89.23C5.86 89.13 3.41 90.15 0.930002 89.8C0.183335 88.7667 -0.0366647 87.6133 0.270002 86.34C1.91 85.45 3.72 85.09 5.65 85.1C10.46 85.12 15.27 85.1 20.08 85.09H24.04C25.01 84.59 25.19 83.78 25.41 83.1C26.61 79.49 29.27 77.17 32.43 75.45C35.64 73.7 38.89 71.97 42.57 71.32C43.31 71.19 44.04 70.94 44.74 70.65C48.3 69.16 52.08 68.91 55.85 68.56C57.36 68.42 58.88 68.46 60.35 67.98C60.93 67.79 61.6 67.74 62.22 67.78C65.87 67.99 69.56 67.4 73.17 68.34C73.53 68.43 73.93 68.39 74.3 68.41C78.46 68.67 82.61 68.91 86.77 69.19C87.9 69.27 89.03 69.42 90.14 69.64C94.22 70.46 98.28 71.28 102.44 71.66C107.08 72.08 111.65 73.15 116.29 73.55C119.68 73.85 123.02 74.57 126.46 74.55C130.24 74.53 133.97 75.3 137.72 75.79C139.35 76 141.01 75.96 142.62 76.22C144.73 76.56 146.82 77.01 148.9 77.54C153.17 78.62 157.56 79.08 161.82 80.27C163.75 80.81 165.81 80.67 167.79 81.2C174.36 82.94 181.04 84.28 187.55 86.3C191.27 87.45 195.17 88.05 198.98 88.88C203.18 89.8 207.44 90.13 211.71 90.54C215.36 90.89 219.05 90.77 222.64 91.32C231.09 92.61 239.54 92.01 248 91.84C250.01 91.8 252.02 91.46 254 91.13C255.52 90.88 256.82 90.05 258.35 89.1C259.14 87.63 260.03 85.97 260.84 84.45C261.22 83.13 261 82.06 260.46 81C258.98 78.12 257 75.75 254.12 74.15C250.22 71.99 246.14 70.55 241.65 69.98C237.49 69.45 233.33 69.42 229.17 69.36C227.04 69.33 224.91 69.8 222.77 69.98C218.49 70.34 214.19 70.5 209.94 71.03C204.94 71.66 199.88 71.8 194.91 72.58C188.69 73.55 182.38 73.97 176.26 75.58C170.45 77.1 164.51 77.1 158.57 77.05C157.19 77.04 155.81 76.95 154.57 76.91C153.38 76.02 153.13 75 153.42 73.82C154.13 72.43 155.39 72.34 156.68 72.33C159.84 72.29 163.01 72.29 166.17 72.17C170.36 72.02 174.38 70.93 177.89 70.19C179.27 69.56 179.16 68.31 180.15 68.05C181 67.83 181.84 67.59 182.7 67.35C183.92 66.14 184.78 64.83 184.15 62.79C182.62 62.6 180.89 62.49 180.3 60.42C181.29 58.23 183.22 58.54 185.17 58.68C188.76 61.43 187.92 65.05 187.09 68.78C190.88 68.23 194.57 67.69 198.26 67.17C198.88 67.08 199.52 67.02 200.15 67.02C205.21 66.98 210.18 66.16 215.19 65.62C221.59 64.93 228 64.31 234.48 64.59C238.28 64.75 241.99 65.21 245.72 65.93C250.19 66.79 253.87 69.26 257.84 71.17C258.49 71.49 259.04 72.11 259.52 72.68C262.06 75.69 264.38 78.83 265.35 82.75C265.47 83.23 265.73 83.66 265.95 84.16C269.3 84.77 272.5 83.53 275.77 83.63C279.18 83.73 282.6 83.6 286.02 83.59C289.31 83.58 292.59 83.59 295.24 83.59C296.53 83.92 296.98 84.34 297.29 84.81C297.48 85.42 297.35 85.9 296.98 86.28C296.25 87.04 295.25 87.29 294.29 87.55C293.81 87.68 293.29 87.67 292.78 87.69C285.46 87.95 278.13 88.18 270.81 88.48C268.55 88.57 266.29 88.84 264.22 89.01C263.86 89.3 263.58 89.42 263.48 89.62C261 94.34 256.69 95.8 251.8 95.99C247.88 96.14 244.02 96.7 240.14 97.16C238.77 97.32 237.32 97.44 235.99 97.18C234.22 96.83 232.48 96.82 230.71 96.8C227.93 96.76 225.17 96.8 222.42 96.14C221.1 95.82 219.65 96.01 218.26 96C215.98 95.99 213.72 96 211.47 95.49C210.25 95.21 208.96 95.21 207.7 95.17C203.9 95.06 200.2 94.34 196.52 93.45C191.74 92.29 186.95 91.2 182.19 89.99C176.57 88.56 171.02 86.82 165.35 85.62C162.28 84.97 159.18 84.41 156.08 83.84C152.61 83.2 149.1 82.83 145.69 81.82C144.01 81.32 142.22 81.07 140.46 80.99C133.77 80.68 127.18 79.29 120.47 79.14C118.97 79.11 117.47 78.76 115.98 78.55C111.12 77.85 106.28 77.03 101.41 76.49C96.52 75.95 91.7 75 86.86 74.15C86.24 74.04 85.6 74.06 84.97 74.04C81.82 73.9 78.64 74.19 75.55 73.27C68.86 73.27 62.15 72.48 55.48 73.67C55.23 73.71 54.97 73.78 54.73 73.75C49.33 73.27 44.69 76 39.75 77.39C37.37 78.06 35.13 79.47 33.06 80.89C30.32 82.76 29.26 84.71 27.56 89.45L27.57 89.43Z" fill="#4B89C4"/>
<path d="M142.95 48.26C138.82 47.52 135.53 49.2 132.08 49.64C131.83 50.49 132.52 50.78 132.85 51.24C134.38 53.44 133.98 55.88 133.5 58.2C132.74 61.87 130.5 64.52 127.1 66.15C126.42 66.48 125.72 66.77 125.02 67.07C121.43 67.28 118.04 66.63 114.93 65.24C114.5 64.46 114.15 63.93 113.89 63.36C113.69 62.91 113.61 62.42 113.5 62.04C114.09 60.54 115.44 60.9 116.43 60.52C118.24 61.84 120.32 62.29 122.45 62.38C124.63 62.47 126.43 61.33 127.59 59.63C129.09 57.44 130.14 54.98 129.63 52.47C128.95 51.19 127.9 50.98 126.96 50.3C123.06 50.86 119.22 50.53 115.22 47.99C114.42 47.2 113.02 46.08 111.93 44.71C110.01 42.29 109 39.45 108.65 36.36C108.18 32.24 109.64 28.67 111.79 25.32C113.95 21.94 116.94 19.43 120.56 17.74C122.52 16.83 124.31 15.67 126.08 14.45C127.66 13.37 129.03 12.09 130.09 10.48C132.76 6.41001 136.9 4.61001 141.33 3.32001C142.41 3.01001 143.62 2.96001 144.7 3.38001C146.04 3.90001 147.45 3.75001 148.8 4.02001C150.06 4.35001 150.99 5.24001 152.07 5.89001C154.14 7.13001 156.27 7.38001 158.58 6.41001C161.03 5.38001 163.48 4.36001 165.6 2.73001C167.9 0.960011 170.56 0.40001 173.36 0.0900105C178.9 -0.52999 183.42 1.71001 187.67 5.03001C188.3 6.21001 188.93 7.44001 189.62 8.64001C191.59 12.09 192.12 15.67 190.88 19.5C190.34 21.18 190.01 22.92 189.54 24.79C190.48 27.23 191.5 29.8 192.45 32.39C193.28 34.65 193.75 37 193.84 39.41C193.98 43.15 192.66 46.13 189.84 48.77C187.03 51.39 183.53 52.38 180.24 53.92C179.59 54.22 178.75 54.19 178 54.19C175.22 54.22 172.44 54.2 169.95 54.2L165.92 52.17C163.18 52.56 160.45 53.13 157.7 53.29C155.31 53.43 152.95 52.77 150.74 51.84C148.07 50.71 145.47 49.41 142.96 48.23L142.95 48.26ZM226.68 134.41C229.93 134.18 232.39 132.74 234.48 130.59C236.33 128.68 238.12 126.73 239.56 124.47C242 120.62 244.78 117.02 247.68 113.51C250.84 109.69 254.91 107.25 259.45 105.49C260.26 105.18 261.15 105.05 262.02 104.91C263.64 104.65 265.26 104.38 266.89 104.22C268.2 104.09 269.38 103.61 270.35 102.81C272.1 101.38 274.07 100.22 275.37 98.24C276.43 96.62 277.99 95.52 279.81 94.93C280.52 94.9 281.12 94.99 281.45 95.84C281.43 97.2 280.66 98.41 279.82 99.46C278.41 101.23 276.81 102.85 275.23 104.47C273.22 106.52 270.84 107.75 267.91 108.07C265.79 108.3 263.69 108.83 261.63 109.39C256.39 110.82 252.52 114.24 249.28 118.39C245.94 122.67 242.81 127.11 239.56 131.46C237.13 134.71 233.79 136.65 230.03 137.98C228.92 138.37 227.79 138.55 226.68 138.29C224.35 137.77 222.03 137.18 219.79 136.31C217.46 135.4 215.62 133.94 214.2 131.94C211.55 128.2 209.3 124.29 208.55 119.66C208.11 116.93 207.37 114.26 207.13 111.47C206.9 108.85 206.17 106.26 204.55 104.26C202.73 103.11 200.94 102.54 198.98 102.68C197.42 102.79 196 102.2 194.53 101.87C193.9 101.73 193.44 101.26 193.21 100.63C193.15 99.93 193.47 99.43 194.32 98.9C196.29 98.54 198.6 98.45 200.82 98.83C204.3 99.41 207.22 100.89 208.82 104.44C210.09 107.24 210.9 110.08 211.27 113.13C211.65 116.25 212.32 119.33 212.91 122.43C213.03 123.04 213.31 123.64 213.62 124.18C214.55 125.83 215.54 127.45 216.49 129.08C217.7 131.14 219.38 132.52 221.78 133.04C223.5 133.42 225.18 133.99 226.7 134.43L226.68 134.41ZM107.37 100.26C104.11 98.72 101.04 99.01 98.26 99C97.11 98.58 96.63 97.9 96.47 97.04C96.68 95.76 97.53 95.2 98.6 95.14C99.98 95.07 101.37 95.19 102.74 95.3C103.49 95.36 104.22 95.65 104.96 95.71C106.68 95.85 108.08 96.63 109.37 97.7C111.4 99.4 113.46 101.06 115.47 102.78C117.04 104.12 118.96 104.76 120.68 105.53C122.95 105.31 125.08 105.18 127.19 104.86C128.3 104.7 129.39 104.29 130.43 103.86C131.83 103.28 133.15 102.54 134.53 101.92C140.65 99.15 146.96 98.17 153.68 99.29C157.31 99.9 160.82 100.7 164.26 102.02C166.36 102.83 168.59 103.31 170.74 103.93C173.3 103.59 175.62 102.69 177.84 101.43C178.6 101 179.44 100.67 180.29 100.46C181.03 100.27 181.79 100.45 182.42 100.97C182.96 101.42 183.11 101.99 182.96 102.88C180.91 105 177.81 105.63 175.63 107.24C170.97 107.96 166.79 107.2 162.75 105.58C159.81 104.4 156.71 103.79 153.65 103.09C151.33 102.56 148.85 102.57 146.49 103.02C144.74 103.35 142.99 103.49 141.15 103.7C138.13 105.06 135.02 106.44 131.93 107.86C128.38 109.49 124.6 109.73 120.81 109.51C118.51 109.38 116.33 108.24 114.7 106.73C112.3 104.49 109.42 102.82 107.38 100.3L107.37 100.26Z" fill="#4B89C4"/>
<path d="M150.46 60.84C151.5 60.54 152.45 60.26 153.28 60.02C156.42 61.32 156.43 61.34 156.19 63.66C154.79 64.54 152.99 63.79 151.56 64.76C149.37 63.55 146.55 63.65 145.23 61.19C145.3 60.27 145.87 60.09 146.53 60.01C147.84 59.84 148.93 60.68 150.46 60.84Z" fill="#4B89C4"/>
</g>
</g>
<defs>
<clipPath id="clip0_1_127">
<rect width="298" height="139" fill="white"/>
</clipPath>
</defs>
</svg>
