<svg width="230" height="196" viewBox="0 0 230 196" fill="none" xmlns="http://www.w3.org/2000/svg">
<g clip-path="url(#clip0_1_137)">
<mask id="mask0_1_137" style="mask-type:luminance" maskUnits="userSpaceOnUse" x="0" y="0" width="230" height="196">
<path d="M230 0H0V196H230V0Z" fill="white"/>
</mask>
<g mask="url(#mask0_1_137)">
<path d="M159.471 53.1721C160.43 52.7921 161.045 52.5391 161.724 52.2671C161.995 51.6431 162.258 51.0371 162.457 50.5661C162.149 48.7831 160.828 48.7561 159.76 48.4031C158.593 49.3441 158.331 50.5661 157.951 51.4801C158.059 52.6381 158.955 52.5301 159.462 53.1631L159.471 53.1721ZM132.236 49.0361C131.377 49.9321 130.689 50.8011 130.391 51.8331C130.644 52.6571 131.105 53.0821 131.856 53.1731C133.223 53.3441 134.236 52.7561 135.123 51.6881C134.996 49.8061 133.72 49.3351 132.227 49.0451L132.236 49.0361ZM3.22099 184.985C6.04399 184.877 8.83999 184.406 11.663 184.279C11.726 183.329 15.002 173.048 15.427 172.242C17.526 168.314 19.598 164.359 21.733 160.449C23.38 157.435 25.243 154.566 27.66 152.077C28.845 150.856 29.877 149.471 30.935 148.122C36.292 141.289 41.657 134.465 48.108 128.591C51.574 125.432 54.939 122.165 58.468 119.079C60.784 117.052 63.245 115.169 65.734 113.35C71.642 109.033 77.641 104.869 84.201 101.548C87.367 99.9461 90.724 98.8051 93.819 97.0771C96.316 95.6831 98.895 94.4701 101.799 94.0991C102.459 94.0181 103.093 93.6741 103.799 93.4291C104.984 91.6101 106.513 90.0891 108.277 88.7871C108.902 88.3251 109.426 87.6821 109.915 87.0571C111.607 84.8771 112.865 82.4871 113.742 79.8441C114.367 77.9621 114.394 76.0251 114.72 74.2421C115.389 73.1111 116.059 72.2151 117.416 72.3231C118.601 73.5821 118.791 73.8631 118.628 74.9301C118.23 77.6361 117.796 80.3421 116.592 82.8581C115.995 84.0891 115.443 85.3481 114.873 86.5961C112.557 89.4471 109.924 91.9541 106.839 93.8641C110.241 95.2671 113.57 96.6421 117.027 98.0721C117.524 96.6421 118.33 95.2761 118.42 93.8551C118.619 90.6781 118.954 87.4651 118.23 84.2881C118.185 84.0801 118.257 83.8361 118.293 83.5101C118.637 82.6231 119.054 81.6901 120.311 81.3651C120.546 81.4191 120.899 81.4471 121.18 81.6001C121.469 81.7541 121.705 82.0261 121.931 82.2161C122.347 83.7001 122.881 85.1121 122.763 86.6231C122.528 89.5831 122.247 92.5431 121.94 95.5031C121.768 97.1491 120.827 98.2721 118.9 98.9051C121.433 99.4481 123.541 99.9101 125.659 100.362C127.432 99.8021 135.765 99.5571 139.267 99.1321C139.212 98.8871 139.176 98.6421 139.122 98.3981C139.366 97.6291 139.574 96.9861 139.782 96.3531C139.267 94.9051 138.76 93.5111 138.344 92.3531C138.199 88.5871 140.162 86.3521 142.967 84.6781C143.845 84.1531 144.768 83.6641 145.727 83.3201C148.215 82.4151 150.513 81.1571 152.821 79.8901C154.621 78.8941 156.386 77.8171 158.231 76.9121C159.978 76.0621 161.208 74.8391 161.796 72.8751C161.959 69.7621 162.059 66.5761 161.389 63.4001C161.253 62.7391 161.28 62.0331 161.262 61.3451C161.217 59.6621 161.751 58.1951 162.945 56.9921C163.343 56.5841 163.823 56.2221 164.131 55.7521C165.18 54.1321 166.773 53.6881 168.537 53.5161C169.704 53.3991 170.799 53.6251 171.858 53.9691C172.437 54.4391 172.898 54.9371 172.934 55.1731C173.188 56.9281 172.446 58.0601 172.59 59.3811C173.296 65.7611 173.133 72.1791 172.934 78.5771C172.853 81.1391 172.201 83.5371 170.736 85.6641C167.777 87.6461 164.818 89.5561 161.407 90.6961C159.815 91.2301 158.249 92.0631 157.2 93.7011C156.965 95.7561 157.444 97.9731 156.612 100.064C156.53 100.263 156.576 100.525 156.612 100.742C156.937 102.996 157.272 105.241 157.607 107.494C158.358 107.648 159 107.775 159.751 107.929C162.402 111.766 165.18 115.54 167.705 119.477C171.459 125.342 174.952 131.361 177.974 137.669C181.783 145.624 185.095 153.761 188.099 162.033C188.877 164.169 189.483 166.368 190.279 168.495C191.465 171.654 193.211 180.686 194.695 185.601H195.129C197.074 185.61 199.02 185.61 200.965 185.592C202.901 185.574 204.838 185.646 206.765 185.194C207.968 184.913 209.271 184.985 210.52 185.067C211.759 185.148 212.963 185.302 214.229 185.085C215.333 184.895 216.537 184.958 217.649 185.157C220.608 185.682 223.576 185.547 226.544 185.547C227.331 185.547 228.154 185.447 228.896 185.99C229.828 187.049 230.452 188.189 229.593 189.529C228.525 190.217 227.467 190.018 226.462 190.027C222.11 190.027 217.767 189.99 213.415 189.999C211.47 189.999 209.497 189.882 207.597 190.19C206.005 190.452 204.43 190.552 202.838 190.57C199.979 190.606 197.111 190.687 194.251 190.57C193.69 190.543 193.138 190.506 192.577 190.479C192.442 190.479 192.306 190.479 192.17 190.461C188.415 190.271 184.661 190.027 180.915 189.755C179.793 189.674 178.707 189.113 177.675 189.411C171.939 193.221 165.741 195.267 158.729 196C153.345 194.063 147.98 191.674 145.085 185.927C144.632 185.89 144.261 185.755 143.972 185.854C141.655 186.687 139.249 186.515 136.851 186.624C134.571 186.723 132.3 187.067 130.029 187.094C121.677 187.194 113.326 187.266 104.966 187.212C102.089 187.194 99.302 187.891 96.434 187.909C90.263 187.954 84.101 187.728 77.93 188.407C74.537 188.778 71.081 188.488 67.679 189.058C66.457 189.266 65.164 189.094 63.906 189.076C63.345 189.067 62.766 188.895 62.223 188.977C59.491 189.348 56.74 189.185 53.998 189.203C49.655 189.239 45.321 188.959 40.988 188.741C35.396 188.461 29.777 188.624 24.168 188.624C17.074 188.624 9.97999 188.633 2.87799 188.624C2.08999 188.624 1.26699 188.687 0.560995 188.198C0.252995 187.854 -0.0720055 187.529 -5.46128e-06 186.777C0.488995 185.447 1.87299 185.049 3.21199 184.994L3.22099 184.985ZM144.053 105.358C144.035 110.626 144.677 115.83 145.275 121.052C145.664 124.446 145.573 127.912 145.582 131.342C145.609 139.805 145.573 148.276 145.564 156.738C145.564 157.535 145.447 158.377 145.637 159.137C146.342 161.952 146.125 164.821 146.252 167.672C146.46 172.025 147.437 176.252 148.26 180.505C149.6 187.447 153.21 188.796 157.878 191.04C158.485 191.33 159.181 191.439 159.806 191.62C163.895 191.049 167.967 190.524 171.577 188.479C172.283 188.542 172.934 188.606 173.423 188.651C174.21 188.072 174.273 187.384 174.346 186.696C174.662 183.791 174.056 181.012 173.278 178.252C171.161 170.785 169.116 163.3 166.917 155.852C165.017 149.389 162.945 142.982 160.964 136.538C160.457 134.899 160.05 133.243 159.561 131.596C158.566 128.202 157.616 124.799 156.53 121.432C155.508 118.264 155.046 114.979 154.413 111.739C154.105 110.173 153.997 108.562 153.662 107.005C152.703 102.607 152.585 98.1811 153.192 93.4481C154.73 90.2801 157.652 88.4251 161.081 87.1941C163.352 86.3791 165.542 85.4201 167.361 83.7811C167.696 83.4831 167.976 83.1111 168.338 82.7231C168.953 80.2161 169.496 77.6811 169.324 75.0031C169.207 73.1831 169.46 71.3461 169.478 69.5181C169.493 67.691 169.335 65.8665 169.007 64.0691C168.637 61.9611 168.673 59.7791 168.537 57.6251C167.632 57.3651 166.679 57.7091 165.678 58.6571C165.026 59.9781 165.035 61.3811 165.162 62.9201C165.397 65.7621 165.452 68.6401 165.271 71.4821C165.117 73.8891 164.284 76.1701 162.574 78.2341C159.706 79.0571 157.191 80.8671 154.567 82.4601C152.521 83.7102 150.393 84.8201 148.197 85.7821C146.197 86.6511 144.288 87.6551 143.004 89.1761C142.452 90.2711 142.614 91.2031 142.614 92.1081C142.614 95.5481 143.049 98.9411 143.664 102.317C143.845 103.322 144.044 104.354 144.044 105.376L144.053 105.358ZM32.202 184.162C43.295 184.198 54.379 184.243 65.472 184.252C67.752 184.252 70.041 184.397 72.284 183.755C72.927 183.574 73.651 183.673 74.329 183.655C77.297 183.601 80.274 183.619 83.242 183.492C90.426 183.184 97.601 182.813 104.785 182.487C105.346 182.46 105.907 182.605 106.477 182.641C107.155 182.687 107.852 182.813 108.522 182.732C114.783 181.963 121.071 182.18 127.351 182.207C129.522 182.216 131.685 182.207 133.892 181.863C132.318 181.474 130.753 181.057 129.169 180.705C122.392 179.193 115.733 177.193 108.893 175.935C106.549 175.5 104.179 175.202 101.817 174.831C97.085 174.089 92.317 173.726 87.548 173.374C86.752 173.319 85.974 173.138 84.816 172.966C83.64 173.392 82.056 173.509 80.455 173.437C76.917 173.274 73.406 173.835 69.887 173.853C65.055 173.871 60.404 175.138 55.637 175.5C54.514 175.591 53.392 175.89 52.297 176.197C49.647 176.93 46.905 177.057 44.227 177.546C41.539 178.026 38.943 179.021 36.255 179.401C32.582 179.926 29.27 181.456 25.841 182.678C25.054 182.958 24.095 183.184 23.579 184.144H32.193L32.202 184.162Z" fill="#4B89C4"/>
<path d="M174.626 35.334C173.74 39.352 170.853 41.994 168.139 44.746C167.759 45.136 167.198 45.353 166.945 45.516C165.886 45.616 165.343 45.298 165.017 44.52C165.153 43.126 166.067 42.076 166.89 41C167.442 40.275 168.076 39.615 168.691 38.936C169.559 37.986 170.175 33.786 167.37 35.569C165.596 36.691 163.009 38.103 160.828 39.959C160.937 40.827 161.633 41.506 161.109 42.384C160.493 43.018 159.688 43.407 158.792 43.579C155.553 43.325 152.386 43.579 149.093 44.511C148.505 44.954 147.781 45.497 147.066 46.031C146.478 47.19 145.908 48.312 145.591 48.946C145.012 51.516 145.817 53.29 146.677 55.073C147.229 55.625 147.709 56.34 148.378 56.72C149.663 57.453 151.047 57.987 152.432 58.63H155.571C156.06 59.245 157.091 59.119 157.471 60.377C157.435 60.865 157.336 61.635 156.838 62.404C155.689 63.019 154.449 63.725 153.038 63.427C149.998 62.784 147.166 61.617 144.732 59.617C142.488 57.77 141.502 55.245 140.886 52.611C141.004 49.941 142.063 47.633 143.365 45.498C145.365 42.221 148.197 40.049 152.26 39.977C152.947 39.967 153.626 39.913 154.513 39.877C156.793 38.474 159.498 37.297 159.688 33.904C159.281 29.55 156.494 31.442 155.816 33.315C154.133 37.931 151.997 38.031 147.347 39.85C147.039 39.977 146.695 40.013 146.261 40.112C145.166 39.814 143.881 39.742 143.375 38.456C143.537 37.686 143.954 37.306 144.478 37.071C145.41 36.655 146.342 36.239 147.301 35.895C149.147 35.235 149.482 33.913 150.097 32.003C151.518 27.586 143.827 29.831 141.999 33.478C140.172 37.126 140.235 37.47 137.828 39.443C135.874 41.045 133.024 42.194 130.508 42.067C128.002 41.941 129.088 38.32 126.509 39.099C123.93 39.878 124.736 46.9 120.745 47.715C117.009 50.041 115.344 60.15 124.211 62.595C128.789 63.861 128.237 68.757 124.021 67.49C120.736 66.513 118.764 71.69 121.361 77.374C123.958 83.058 124.039 85.411 123.686 87.818C123.252 90.76 123.279 92.506 121.913 95.502C121.225 97.013 120.8 98.272 118.873 98.905C118.873 98.905 117.153 98.725 117.09 97.303C117.027 95.891 117.434 93.71 116.611 91.71C115.805 89.773 113.181 89.972 112.892 90.588C110.576 93.438 109.499 94.036 106.821 93.855C106.821 93.855 103.075 93.674 103.79 93.43C104.975 91.61 108.558 87.81 108.431 84.732C108.304 81.655 106.242 79.645 104.124 81.256C102.496 82.496 103.319 81.754 101.256 82.071C100.958 82.116 100.623 81.89 100.351 81.799C100.261 81.519 100.188 81.311 100.071 80.967C101.5 79.283 102.83 75.319 100.053 74.912C97.275 74.505 95.357 76.65 95.357 76.65C94.841 77.066 94.587 77.256 94.47 77.338C94.543 77.319 94.543 77.428 93.755 78.333C93.231 78.93 92.697 79.537 91.9 79.817C91.122 79.962 90.543 79.772 90.335 78.767C91.068 76.686 92.235 74.704 94.063 73.283C96.253 71.573 98.126 69.617 99.799 67.346C101.917 61.309 101.917 55.091 100.994 48.321C101.238 47.471 101.256 46.095 101.274 44.728C101.319 41.76 101.392 38.782 101.455 35.813C101.473 35.017 101.401 34.203 101.763 33.451C103.6 29.631 104.133 25.36 105.997 21.531C106.748 19.984 107.463 18.454 108.495 17.079C109.245 16.074 109.987 15.06 110.784 14.083C113.697 10.526 116.846 7.21296 121.071 5.17696C122.51 4.48896 124.066 4.03696 125.487 3.30396C128.472 1.75596 131.666 0.90496 134.933 0.39796C137.638 -0.0270397 140.416 -0.12704 143.139 0.28996C148.713 1.13996 153.789 3.49396 158.874 5.76496C159.688 6.12696 160.394 6.77896 161.063 7.39496C162.511 8.69796 163.904 10.046 165.316 11.385C166.311 12.336 167.071 13.431 167.343 14.671L171.188 22.744C174.029 26.283 175.033 30.139 174.862 34.365C174.843 34.7 174.672 35.025 174.599 35.352L174.626 35.334Z" fill="#4B89C4"/>
</g>
</g>
<defs>
<clipPath id="clip0_1_137">
<rect width="230" height="196" fill="white"/>
</clipPath>
</defs>
</svg>
