<svg width="220" height="21" viewBox="0 0 220 21" fill="none" xmlns="http://www.w3.org/2000/svg">
<g clip-path="url(#clip0_1_661)">
<mask id="mask0_1_661" style="mask-type:luminance" maskUnits="userSpaceOnUse" x="0" y="0" width="20" height="21">
<path d="M0 0.00292969H19.98V20.6965H0V0.00292969Z" fill="white"/>
</mask>
<g mask="url(#mask0_1_661)">
<path d="M11.891 8.76559L19.3285 0.00292969H17.566L11.1082 7.61103L5.94904 0.00292969H0L7.80005 11.5078L0 20.6965H1.76252L8.58284 12.6617L14.031 20.6965H19.98L11.891 8.76559ZM9.47623 11.6092L8.68631 10.4639L2.3976 1.3473H5.10489L10.1798 8.70422L10.9704 9.85022L17.5674 19.4121H14.8601L9.47623 11.6092Z" fill="black"/>
</g>
</g>
<g clip-path="url(#clip1_1_661)">
<mask id="mask1_1_661" style="mask-type:luminance" maskUnits="userSpaceOnUse" x="100" y="0" width="20" height="20">
<path d="M100 0H120V20H100V0Z" fill="white"/>
</mask>
<g mask="url(#mask1_1_661)">
<path d="M105.859 0.0697137C104.794 0.119958 104.068 0.290201 103.433 0.538982C102.766 0.790421 102.162 1.18505 101.663 1.69508C101.156 2.19561 100.763 2.8009 100.513 3.46874C100.267 4.10532 100.1 4.83264 100.054 5.89703C100.007 6.96386 99.9966 7.30386 100.001 10.0195C100.007 12.7346 100.019 13.0756 100.07 14.1424C100.12 15.2063 100.29 15.9326 100.539 16.5683C100.791 17.2355 101.185 17.8394 101.696 18.3375C102.252 18.8917 102.811 19.2326 103.469 19.4873C104.105 19.7331 104.833 19.9004 105.897 19.9473C106.964 19.9941 107.304 20.0043 110.019 19.9995C112.735 19.9941 113.076 19.9819 114.142 19.9312C115.206 19.8804 115.933 19.7102 116.568 19.4619C117.225 19.2048 117.783 18.8619 118.337 18.3058C118.845 17.8051 119.237 17.1996 119.487 16.5317C119.733 15.8961 119.9 15.1683 119.947 14.1048C119.993 13.0375 120.004 12.6965 119.999 9.98142C119.994 7.2663 119.981 6.92581 119.931 5.85947C119.88 4.79508 119.71 4.06874 119.461 3.43313C119.209 2.76669 118.814 2.16304 118.305 1.66386C117.805 1.15576 117.2 0.763464 116.532 0.514592C115.895 0.26825 115.168 0.100445 114.103 0.0541039C113.037 0.00678681 112.697 -0.0044327 109.98 0.00142096C107.264 0.00727462 106.925 0.0184941 105.859 0.0697137ZM105.975 18.1473C105 18.1048 104.47 17.9429 104.118 17.8073C103.683 17.6469 103.29 17.392 102.966 17.0609C102.616 16.7117 102.398 16.3795 102.216 15.9131C102.079 15.5604 101.914 15.0317 101.868 14.0565C101.819 13.0029 101.807 12.6858 101.802 10.0161C101.798 7.3463 101.807 7.03069 101.853 5.97557C101.895 5.00142 102.058 4.47118 102.193 4.11849C102.374 3.65069 102.59 3.31849 102.94 2.96727C103.289 2.61606 103.621 2.39947 104.088 2.21703C104.44 2.07947 104.969 1.91557 105.943 1.86923C106.998 1.81947 107.314 1.80874 109.983 1.80386C112.654 1.79849 112.97 1.80776 114.025 1.8541C114.999 1.89654 115.529 2.05801 115.881 2.19459C116.349 2.37508 116.682 2.59069 117.033 2.94045C117.384 3.28971 117.601 3.62142 117.783 4.08923C117.921 4.44045 118.085 4.9702 118.131 5.94435C118.181 6.99898 118.192 7.31508 118.197 9.98484C118.202 12.6551 118.192 12.9712 118.146 14.0253C118.104 15.0004 117.942 15.5302 117.806 15.8834C117.625 16.3502 117.409 16.6834 117.06 17.0346C116.737 17.3666 116.345 17.6227 115.911 17.7843C115.56 17.9219 115.03 18.0858 114.056 18.1322C113.001 18.1819 112.685 18.1931 110.015 18.198C107.346 18.2029 107.029 18.1931 105.975 18.1473ZM114.127 4.65508C114.127 4.9734 114.255 5.27843 114.48 5.50307C114.706 5.7277 115.011 5.85353 115.33 5.85288C115.648 5.85224 115.953 5.72516 116.177 5.49962C116.402 5.27407 116.528 4.96853 116.527 4.6502C116.527 4.49261 116.496 4.33664 116.435 4.19117C116.374 4.0457 116.286 3.91359 116.174 3.80239C116.062 3.69118 115.93 3.60306 115.784 3.54305C115.639 3.48304 115.482 3.45232 115.325 3.45264C115.167 3.45296 115.011 3.48432 114.866 3.54492C114.72 3.60552 114.588 3.69418 114.477 3.80584C114.252 4.03134 114.127 4.33682 114.127 4.65508M104.865 10.0102C104.87 12.8463 107.174 15.1404 110.009 15.1346C112.845 15.1287 115.14 12.8263 115.135 9.99069C115.129 7.15508 112.826 4.86045 109.99 4.86581C107.155 4.87118 104.86 7.17459 104.865 10.0102M106.666 10.0068C106.665 9.12271 107.014 8.2742 107.638 7.64792C108.262 7.02164 109.11 6.66889 109.994 6.66727C110.878 6.66566 111.726 7.0153 112.353 7.6393C112.979 8.26329 113.332 9.11052 113.333 9.99459C113.335 10.8786 112.985 11.7271 112.361 12.3533C111.737 12.9795 110.89 13.3322 110.006 13.3339C109.122 13.3355 108.274 12.9859 107.647 12.3619C107.021 11.738 106.668 10.8908 106.666 10.0068Z" fill="black"/>
</g>
</g>
<g clip-path="url(#clip2_1_661)">
<mask id="mask2_1_661" style="mask-type:luminance" maskUnits="userSpaceOnUse" x="200" y="0" width="20" height="21">
<path d="M200 0.00292969H219.98V20.6965H200V0.00292969Z" fill="white"/>
</mask>
<g mask="url(#mask2_1_661)">
<path d="M200 0.134793C203.848 0.134793 209.119 -0.0700024 212.902 0.0327519C217.979 0.169044 219.887 2.48458 219.951 8.20315C220.015 11.4371 219.951 20.6978 219.951 20.6978H214.458C214.458 12.5952 214.491 11.2579 214.458 8.7055C214.394 6.45846 213.781 5.38739 212.132 5.18331C210.386 4.97852 205.492 5.14906 205.492 5.14906V20.6971H200V0.134793Z" fill="black"/>
</g>
</g>
<defs>
<clipPath id="clip0_1_661">
<rect width="19.98" height="20.6985" fill="white"/>
</clipPath>
<clipPath id="clip1_1_661">
<rect width="20" height="20" fill="white" transform="translate(100)"/>
</clipPath>
<clipPath id="clip2_1_661">
<rect width="19.98" height="20.6985" fill="white" transform="translate(200)"/>
</clipPath>
</defs>
</svg>
