<svg width="231" height="281" viewBox="0 0 231 281" fill="none" xmlns="http://www.w3.org/2000/svg">
<g clip-path="url(#clip0_1_16)">
<path d="M60.8137 0.00623724H150.128C151.332 0.00623724 152.135 1.00976 152.135 2.214V15.2598C152.135 16.4641 151.131 17.4676 150.128 17.4676H60.8137C59.6095 17.4676 58.8067 16.4641 58.8067 15.2598V2.214C58.606 1.00976 59.6095 0.00623724 60.8137 0.00623724ZM210.741 99.5561L59.6095 81.0912C58.4053 81.0912 57.6024 79.887 57.8032 78.6827L59.4088 65.8376C59.4088 64.6334 60.613 63.8305 61.8173 64.0312L212.948 82.4961C214.153 82.4961 214.955 83.7004 214.755 84.9046L213.149 97.7497C213.149 98.954 211.945 99.7568 210.741 99.5561ZM59.4088 172.211L58.0039 159.366C58.0039 158.162 58.606 157.159 59.8102 156.958L210.941 140.099C212.146 140.099 213.149 140.901 213.35 141.905L214.755 154.75C214.755 155.954 214.153 156.958 212.948 157.159L61.8173 174.018C60.613 174.018 59.6095 173.215 59.4088 172.211ZM72.2539 223.592L66.8349 229.814L73.2575 239.849H69.6448L64.8278 232.222L63.0215 234.229V239.849H60.0109V223.592H63.0215V230.416L68.8419 223.592H72.2539ZM98.747 231.821C98.747 236.437 94.9336 240.251 90.3174 240.251C85.7012 240.251 81.8878 236.638 81.8878 231.821C81.8878 227.004 85.7012 223.391 90.3174 223.391C94.9336 223.391 98.747 227.004 98.747 231.821ZM84.8984 231.821C84.8984 234.831 87.3068 237.24 90.3174 237.24C93.328 237.24 95.7365 234.831 95.7365 231.821C95.7365 228.81 93.328 226.402 90.3174 226.402C87.3068 226.402 84.8984 228.81 84.8984 231.821ZM112.596 232.423C110.99 231.821 108.782 230.817 108.782 228.208C108.782 225.599 110.99 223.391 113.599 223.391C116.208 223.391 116.61 223.993 117.814 225.398L116.008 227.405C115.004 226.603 114.201 226.201 113.599 226.201C112.596 226.201 111.793 227.004 111.793 228.008C111.793 229.011 112.395 229.412 113.8 230.015L115.205 230.416C116.811 230.817 119.018 232.423 119.018 235.233C119.018 238.043 116.61 240.05 113.8 240.05C110.99 240.05 110.187 239.247 108.381 237.641L110.187 235.434C111.391 236.839 112.796 237.24 113.8 237.24C114.803 237.24 116.208 236.236 116.208 235.233C116.208 234.229 115.205 233.226 114.001 232.824L112.796 232.423H112.596ZM140.092 223.592H143.103V233.627C143.103 237.039 140.293 240.05 136.279 240.05C132.265 240.05 129.455 237.039 129.455 233.627V223.592H132.466V233.226C132.466 235.434 134.071 237.24 136.279 237.24C138.487 237.24 140.092 235.434 140.092 233.226V223.592ZM167.79 238.243C166.385 239.448 164.578 240.05 162.571 240.05C157.955 240.05 154.142 236.437 154.142 231.62C154.142 226.803 157.955 223.191 162.571 223.191C167.188 223.191 166.385 223.793 167.79 224.997L165.783 227.004C164.98 226.402 163.776 226 162.571 226C159.561 226 157.152 228.409 157.152 231.42C157.152 234.43 159.561 236.839 162.571 236.839C165.582 236.839 164.177 236.839 164.779 236.437V231.821H167.79V238.043V238.243ZM179.23 223.592H182.24V239.849H179.23V223.592ZM206.927 223.592L201.307 233.427V239.849H198.297V233.427L192.677 223.592H195.888L199.702 230.416L203.515 223.592H206.927ZM227.801 223.592H230.811V233.627C230.811 237.039 228.001 240.05 223.987 240.05C219.973 240.05 217.163 237.039 217.163 233.627V223.592H220.174V233.226C220.174 235.434 221.779 237.24 223.987 237.24C226.195 237.24 227.801 235.434 227.801 233.226V223.592ZM70.0462 264.536V267.346H65.8314V280.793H62.8208V267.346H58.606V264.536H70.0462ZM95.9372 272.564C95.9372 277.18 92.1238 280.994 87.5075 280.994C82.8913 280.994 79.0779 277.381 79.0779 272.564C79.0779 267.747 82.8913 264.134 87.5075 264.134C92.1238 264.134 95.9372 267.747 95.9372 272.564ZM82.2892 272.564C82.2892 275.575 84.6977 277.983 87.7082 277.983C90.7188 277.983 93.1273 275.575 93.1273 272.564C93.1273 269.554 90.7188 267.145 87.7082 267.145C84.6977 267.145 82.2892 269.554 82.2892 272.564ZM110.589 264.536L118.015 276.177V264.536H121.025V280.793H117.613L110.187 269.152V280.793H107.177V264.536H110.589ZM140.694 264.536L147.117 280.793H143.906L142.501 276.98H135.878L134.473 280.793H131.261L137.684 264.536H140.895H140.694ZM139.089 268.149L136.881 273.969H141.096L138.888 268.149H139.089ZM163.173 264.536C166.585 264.536 168.191 266.543 168.191 269.554C168.191 272.564 166.987 273.768 164.578 274.37L168.793 280.994H165.181L160.966 274.571H159.761V280.994H156.751V264.737H163.173V264.536ZM163.173 271.36C164.578 271.36 165.381 270.356 165.381 269.353C165.381 268.349 164.378 267.346 163.173 267.346H160.364V271.36H163.173ZM179.832 264.536H182.843V280.793H179.832V264.536ZM6.62329 269.353C6.62329 268.951 6.22188 268.349 6.02117 267.346C5.41906 265.339 5.21835 263.131 5.21835 260.923V245.469H8.42964V262.93L9.43316 261.525C10.4367 260.12 11.4402 258.515 12.0423 257.712L14.6515 259.518C13.8487 260.722 12.4437 262.73 11.6409 264.134C10.8381 265.339 9.63387 267.747 9.23246 268.751L6.62329 269.353ZM15.0529 277.782C18.4649 277.782 21.0741 276.578 23.0811 274.37C27.4966 269.754 27.4966 262.127 27.4966 261.726V245.469H30.7079V261.726C30.7079 261.927 30.7079 264.335 30.1058 267.346C29.303 271.159 27.6974 274.37 25.4896 276.578C22.8804 279.388 19.2677 280.793 15.0529 280.994V277.782ZM31.9122 179.437C28.7009 179.838 24.4861 180.24 20.2713 180.24C16.0564 180.24 12.4437 179.638 10.236 178.634C8.02823 177.63 7.0247 176.226 7.0247 174.218C7.0247 172.211 8.02823 170.806 10.236 169C12.0423 167.394 14.6515 165.99 18.0635 164.384C23.8839 161.775 29.7044 160.571 29.7044 160.571L29.303 158.965L28.9016 157.359C28.7009 157.359 22.6797 158.764 16.6586 161.373C16.0564 161.373 15.655 161.775 15.0529 161.975L12.4437 146.923L9.23246 147.525L12.0423 163.581C6.42258 166.792 3.61271 170.204 3.61271 174.018C3.61271 177.831 4.41553 179.437 8.63034 181.444C11.4402 182.648 15.2536 183.451 20.0705 183.451C24.8875 183.451 28.7009 183.451 32.1129 182.648L31.7115 179.437H31.9122ZM19.067 205.529V202.317H11.8416L14.0494 196.095L11.0388 194.891L8.42964 202.117H1.00354V205.328H7.0247L0.602129 223.191L3.61271 224.395L10.4367 205.328H19.067V205.529ZM24.6868 200.109L23.0811 202.919L33.9192 209.141L35.5249 206.331L24.6868 200.109ZM26.8945 220.18V208.74H23.6832V219.176C21.0741 218.574 19.067 218.775 18.6656 218.775C18.2642 218.775 16.6586 218.775 14.8522 219.578C12.0423 220.581 10.6374 222.789 10.6374 225.599C10.6374 228.409 11.2395 228.81 12.4437 230.015C14.6515 232.222 18.0635 232.222 18.6656 232.222C21.4755 232.222 23.4825 231.419 24.8875 230.015C26.6938 228.008 26.6938 225.599 26.6938 225.198V223.793C28.7009 224.796 30.7079 226.201 32.1129 228.208L34.722 226.201C32.715 223.592 29.9051 221.585 26.6938 220.381H26.8945V220.18ZM22.6797 227.606C21.8769 228.409 20.472 228.81 18.6656 228.81C18.0635 228.81 15.8557 228.81 14.6515 227.405C14.0494 226.803 13.8487 226.201 13.8487 225.398C13.8487 224.596 13.8487 223.191 16.0564 222.388C17.2607 221.786 18.6656 221.786 18.6656 221.786C18.6656 221.786 20.6727 221.786 23.4825 222.388V224.997C23.4825 224.997 23.4825 226.402 22.479 227.405L22.6797 227.606ZM33.7185 70.4538C31.9122 73.063 29.7044 75.2707 27.0952 77.2778C24.2854 79.4856 21.2748 81.0912 18.0635 82.2954C17.6621 82.2954 17.06 82.6968 16.6586 82.8975L17.4614 85.7074C18.0635 85.7074 18.4649 85.306 19.067 85.1053C22.6797 83.7004 25.891 81.894 28.9016 79.6863C31.5108 77.6792 33.9192 75.07 35.9263 72.4609L33.5178 70.6545H33.7185V70.4538ZM9.43316 58.0101H15.8557V55.2002H9.43316V49.3798H6.62329V55.2002H1.30629e-05V58.0101H6.42258C5.61976 63.0277 3.61271 67.6439 0.602129 71.8587C0.602129 72.2602 0.200718 72.4609 -0.200692 72.8623L2.00707 74.6686C2.20777 74.2672 2.60918 74.0665 2.80989 73.6651C4.01412 72.0595 5.01765 70.2531 5.82047 68.4468L6.22188 67.4432V85.7074H9.03175V65.6369L13.648 73.4644L16.0564 72.0595L9.03175 60.0171V58.2108H9.43316V58.0101ZM28.0988 68.0454C30.1058 66.4397 31.9122 64.8341 33.5178 62.827L31.31 61.0207C29.9051 62.827 28.0988 64.4327 26.2924 65.8376C23.4825 68.0453 20.472 69.651 17.2607 70.8552L18.2642 73.6651C21.6762 72.2602 25.0882 70.4538 28.0988 68.2461V68.0454ZM28.0988 56.4044C30.1058 54.7988 31.9122 53.1932 33.5178 51.1861L31.31 49.3798C29.9051 51.1861 28.0988 52.7917 26.2924 54.1967C23.4825 56.4044 20.472 58.0101 17.2607 59.2143L18.2642 62.0242C21.6762 60.6192 25.0882 58.8129 28.0988 56.6051V56.4044ZM18.0635 36.3339H12.243V33.3233H15.8557C16.2571 33.3233 16.6586 32.9219 16.6586 32.5205V0.00623724H19.4684V34.7283C19.4684 35.5311 18.8663 36.1332 18.0635 36.1332V36.3339ZM7.62682 18.6718C9.03175 15.2598 10.236 11.8479 11.0388 8.43586L8.22893 7.63304C7.42611 11.045 6.22188 14.2563 5.01765 17.4676C3.61271 20.8796 1.80636 24.0909 1.30629e-05 27.1015L2.40848 28.7071C4.41553 25.4958 6.02117 22.2845 7.42611 18.6718H7.62682ZM32.715 17.6683C31.31 14.457 29.7044 11.2457 27.8981 8.23516L25.4896 9.64009C27.2959 12.45 28.7009 15.4605 30.1058 18.6718C31.31 21.6824 32.5143 24.8937 33.3171 28.105L36.127 27.3022C35.3242 23.8902 34.1199 20.6789 32.715 17.4676V17.6683ZM10.0353 102.165C7.42611 99.5561 3.412 97.3483 3.2113 97.3483L1.80636 99.9575C1.80636 99.9575 5.61976 101.965 8.02823 104.373L10.0353 102.366V102.165ZM9.23246 113.204C5.21835 109.391 1.80636 107.986 1.60566 107.986L0.401424 110.595C1.40495 110.996 4.21482 112.602 7.2254 115.412L9.23246 113.204ZM6.62329 119.827C4.81694 125.046 1.30629e-05 132.07 1.30629e-05 132.07L1.20425 132.873L2.40848 133.676C2.40848 133.676 3.61271 131.87 5.21835 129.26C7.2254 125.848 8.63034 123.039 9.43316 120.63L6.62329 119.627V119.827ZM33.3171 97.3483H13.0459V111.799H33.3171V97.3483ZM30.3065 100.158V102.968H15.8557V100.158H30.3065ZM15.8557 108.989V106.179H30.3065V108.989H15.8557Z" fill="white"/>
<path d="M36.1264 117.62V114.81H10.0353V117.62H15.4542C14.4507 119.024 13.2465 120.63 11.8416 121.834C10.8381 122.838 10.0353 123.641 9.03176 124.443L10.8381 126.651C11.8416 125.848 12.8451 124.845 13.8486 123.841L14.25 123.44H18.8661C18.0633 124.243 17.2605 125.246 16.4577 126.049C14.4507 128.056 12.4437 129.662 10.0353 131.267L11.6409 133.676C14.0493 132.07 16.257 130.264 18.4647 128.056C19.8696 126.651 21.2745 125.045 22.4787 123.44H26.0913C24.4857 125.848 22.6794 128.056 20.6724 130.063L19.2675 131.468L21.2745 133.676C21.8766 133.274 22.278 132.672 22.8801 132.271C25.4892 129.662 27.8977 126.651 29.704 123.641H33.1159V130.063C33.1159 130.464 32.7145 131.066 32.3131 131.066H29.9047V133.876H33.9187C35.1229 133.876 36.1264 132.873 36.1264 131.669V120.831H16.8591C17.6619 119.827 18.264 119.024 18.8661 118.021H35.9257V117.62H36.1264Z" fill="white"/>
</g>
<defs>
<clipPath id="clip0_1_16">
<rect width="230.38" height="280.475" fill="white" transform="scale(1.00187)"/>
</clipPath>
</defs>
</svg>
